<svg width="24" height="25" viewBox="0 0 24 25" fill="none" xmlns="http://www.w3.org/2000/svg">
<path d="M19 4.5H18V2.5H16V4.5H8V2.5H6V4.5H5C3.89 4.5 3.01 5.4 3.01 6.5L3 20.5C3 21.6 3.89 22.5 5 22.5H19C20.1 22.5 21 21.6 21 20.5V6.5C21 5.4 20.1 4.5 19 4.5ZM19 20.5H5V10.5H19V20.5ZM19 8.5H5V6.5H19V8.5Z" fill="#255CED"/>
<path opacity="0.3" d="M19 8.5H5V6.5H19V8.5Z" fill="#5685FF"/>
<path d="M9.2603 18.4091C8.73189 18.4072 8.27545 18.285 7.89098 18.0426C7.50651 17.8002 7.21011 17.4508 7.00178 16.9943C6.79344 16.5379 6.69022 15.9905 6.69212 15.3523C6.69401 14.7121 6.79818 14.1686 7.00462 13.7216C7.21295 13.2746 7.5084 12.9347 7.89098 12.7017C8.27545 12.4687 8.73189 12.3523 9.2603 12.3523C9.78871 12.3523 10.2451 12.4697 10.6296 12.7045C11.0141 12.9375 11.3105 13.2775 11.5188 13.7244C11.7272 14.1714 11.8304 14.714 11.8285 15.3523C11.8285 15.9943 11.7243 16.5436 11.516 17C11.3076 17.4564 11.0112 17.8059 10.6268 18.0483C10.2442 18.2888 9.78871 18.4091 9.2603 18.4091ZM9.2603 17.125C9.53303 17.125 9.75651 16.983 9.93075 16.6989C10.1069 16.4129 10.194 15.964 10.1921 15.3523C10.1921 14.9527 10.1523 14.6259 10.0728 14.3722C9.99325 14.1184 9.8834 13.9309 9.74325 13.8097C9.6031 13.6866 9.44212 13.625 9.2603 13.625C8.98757 13.625 8.76503 13.7633 8.59268 14.0398C8.42034 14.3163 8.33227 14.7538 8.32848 15.3523C8.32659 15.7595 8.36541 16.0947 8.44496 16.358C8.5245 16.6193 8.63435 16.8125 8.7745 16.9375C8.91655 17.0625 9.07848 17.125 9.2603 17.125ZM14.8427 12.3523C15.1817 12.3523 15.5027 12.4062 15.8058 12.5142C16.1088 12.6203 16.3768 12.7879 16.6097 13.017C16.8446 13.2462 17.0283 13.5455 17.1609 13.9148C17.2953 14.2822 17.3635 14.7273 17.3654 15.25C17.3673 15.7273 17.3076 16.1562 17.1864 16.5369C17.0671 16.9157 16.8957 17.2386 16.6722 17.5057C16.4506 17.7727 16.1836 17.9773 15.8711 18.1193C15.5605 18.2595 15.2139 18.3295 14.8313 18.3295C14.4014 18.3295 14.0236 18.2472 13.6978 18.0824C13.372 17.9176 13.1126 17.696 12.9194 17.4176C12.7262 17.1392 12.6135 16.8295 12.5813 16.4886H14.1381C14.176 16.6648 14.2594 16.7926 14.3881 16.8722C14.5169 16.9498 14.6647 16.9886 14.8313 16.9886C15.1647 16.9886 15.408 16.8447 15.5614 16.5568C15.7167 16.267 15.7953 15.8807 15.7972 15.3977H15.7631C15.6893 15.5758 15.5775 15.7282 15.4279 15.8551C15.2783 15.982 15.104 16.0795 14.9052 16.1477C14.7063 16.2159 14.4961 16.25 14.2745 16.25C13.9241 16.25 13.6173 16.1714 13.354 16.0142C13.0908 15.8551 12.8853 15.6383 12.7376 15.3636C12.5898 15.0871 12.515 14.7727 12.5131 14.4205C12.5112 14.0076 12.6088 13.6458 12.8058 13.3352C13.0027 13.0246 13.2764 12.7831 13.6268 12.6108C13.9772 12.4384 14.3825 12.3523 14.8427 12.3523ZM14.854 13.5455C14.6969 13.5455 14.5567 13.5814 14.4336 13.6534C14.3124 13.7254 14.2167 13.8229 14.1467 13.946C14.0785 14.0691 14.0453 14.2083 14.0472 14.3636C14.0491 14.5189 14.0842 14.6581 14.1523 14.7812C14.2224 14.9044 14.3171 15.0019 14.4364 15.0739C14.5576 15.1458 14.6969 15.1818 14.854 15.1818C14.9696 15.1818 15.0766 15.1619 15.1751 15.1222C15.2736 15.0805 15.3588 15.0227 15.4308 14.9489C15.5046 14.8731 15.5614 14.786 15.6012 14.6875C15.6429 14.5871 15.6628 14.4792 15.6609 14.3636C15.659 14.2083 15.623 14.0691 15.5529 13.946C15.4828 13.8229 15.3872 13.7254 15.266 13.6534C15.1448 13.5814 15.0075 13.5455 14.854 13.5455Z" fill="#255CED"/>
</svg>
