<svg width="16" height="16" viewBox="0 0 16 16" fill="none" xmlns="http://www.w3.org/2000/svg">
<g clip-path="url(#clip0_1402_2695)">
<path opacity="0.3" d="M7.44797 4H6.11463H2.66797V12H13.3346V4H7.44797ZM5.2213 10L3.33464 8.11333L4.27463 7.17333L5.21463 8.11333L7.57463 5.75333L8.51463 6.69333L5.2213 10ZM12.668 9.06L11.728 10L10.668 8.94L9.60797 10L8.66797 9.06L9.72797 8L8.66797 6.94L9.60797 6L10.668 7.06L11.728 6L12.668 6.94L11.608 8L12.668 9.06Z" fill="#5685FF"/>
<path d="M5.2187 9.99935L3.33203 8.11268L4.27203 7.17268L5.21203 8.11268L7.57203 5.75268L8.51203 6.69268L5.2187 9.99935ZM11.6054 7.99935L12.6654 9.05935L11.7254 9.99935L10.6654 8.93935L9.60537 9.99935L8.66537 9.05935L9.72537 7.99935L8.66537 6.93935L9.60537 5.99935L10.6654 7.05935L11.7254 5.99935L12.6654 6.93935L11.6054 7.99935ZM13.332 2.66602H7.9987H6.66537H2.66536C1.93203 2.66602 1.3387 3.26602 1.3387 3.99935L1.33203 11.9993C1.33203 12.7327 1.93203 13.3327 2.66536 13.3327H13.332C14.0654 13.3327 14.6654 12.7327 14.6654 11.9993V3.99935C14.6654 3.26602 14.0654 2.66602 13.332 2.66602ZM13.332 11.9993H2.66536V3.99935H6.11203H7.44537H13.332V11.9993Z" fill="#255CED"/>
</g>
<defs>
<clipPath id="clip0_1402_2695">
<rect width="16" height="16" fill="white"/>
</clipPath>
</defs>
</svg>
