<svg width="142" height="24" viewBox="0 0 142 24" fill="none" xmlns="http://www.w3.org/2000/svg">
<g id="Group 5234">
<g id="RatingBet">
<path d="M30.7963 18.8863L33.6556 1.66305H41.0898C42.3681 1.66305 43.4474 1.89572 44.3276 2.36106C45.2078 2.82641 45.8414 3.49639 46.2282 4.371C46.6151 5.24562 46.7076 6.29404 46.5057 7.51626C46.3039 8.7497 45.8582 9.78971 45.1686 10.6363C44.4846 11.4773 43.6128 12.1164 42.5531 12.5537C41.4991 12.9854 40.3161 13.2013 39.0042 13.2013H34.5638L35.1694 9.56825H38.6678C39.2173 9.56825 39.6994 9.50097 40.1143 9.36641C40.5292 9.22625 40.8656 9.0076 41.1235 8.71045C41.3814 8.4077 41.5496 8.00964 41.6281 7.51626C41.7066 7.02289 41.6673 6.62202 41.5103 6.31366C41.3533 5.9997 41.0926 5.76983 40.7282 5.62406C40.3638 5.47268 39.9125 5.397 39.3742 5.397H37.7259L35.4721 18.8863H30.7963ZM42.1999 10.9811L45.1938 18.8863H40.1143L37.2213 10.9811H42.1999Z" fill="#212121"/>
<path d="M49.0584 19.0881C48.2399 19.0881 47.5363 18.9536 46.9476 18.6845C46.3645 18.4097 45.9384 17.9949 45.6693 17.4398C45.4058 16.8792 45.3469 16.1727 45.4927 15.3205C45.6104 14.6141 45.8319 14.0114 46.1571 13.5124C46.4822 13.0135 46.8859 12.6042 47.3681 12.2846C47.8502 11.965 48.3913 11.7212 48.9912 11.553C49.5967 11.3792 50.2358 11.267 50.9086 11.2166C51.6374 11.1605 52.2289 11.0904 52.6831 11.0063C53.1372 10.9222 53.4764 10.8073 53.7006 10.6615C53.9249 10.5158 54.0595 10.3195 54.1043 10.0728V10.0392C54.1548 9.70281 54.0651 9.44491 53.8352 9.2655C53.6109 9.08609 53.297 8.99638 52.8933 8.99638C52.456 8.99638 52.0776 9.09169 51.758 9.28232C51.444 9.47294 51.2282 9.77008 51.1104 10.1738H46.8383C47.0177 9.38884 47.3849 8.6656 47.9399 8.00403C48.5006 7.33685 49.2435 6.80423 50.1685 6.40617C51.0992 6.0025 52.2093 5.80067 53.4988 5.80067C54.4183 5.80067 55.2256 5.90999 55.9208 6.12865C56.616 6.3417 57.1907 6.64164 57.6448 7.02849C58.1046 7.40974 58.4269 7.85826 58.612 8.37406C58.8026 8.88425 58.8474 9.4393 58.7465 10.0392L57.2664 18.8863H52.9269L53.2297 17.0698H53.1288C52.7924 17.5519 52.4139 17.9416 51.9935 18.2387C51.5786 18.5359 51.1244 18.7517 50.6311 18.8863C50.1433 19.0208 49.6191 19.0881 49.0584 19.0881ZM51.0768 16.1615C51.4244 16.1615 51.7664 16.0886 52.1028 15.9429C52.4392 15.7971 52.7279 15.5869 52.969 15.3121C53.2101 15.0374 53.3643 14.7038 53.4315 14.3114L53.5997 13.2349C53.4764 13.2854 53.339 13.333 53.1876 13.3779C53.0419 13.4171 52.8877 13.4564 52.7251 13.4956C52.5681 13.5349 52.3999 13.5713 52.2205 13.6049C52.0467 13.6386 51.8673 13.6722 51.6823 13.7059C51.3123 13.7619 51.0011 13.8544 50.7488 13.9834C50.4965 14.1067 50.3003 14.2609 50.1601 14.4459C50.02 14.6253 49.9331 14.8272 49.8994 15.0514C49.849 15.4046 49.9303 15.6794 50.1433 15.8756C50.362 16.0662 50.6731 16.1615 51.0768 16.1615Z" fill="#212121"/>
<path d="M68.6303 5.96886L68.0584 9.33278H59.5477L60.1196 5.96886H68.6303ZM62.2725 2.87406H66.9147L64.9468 14.7319C64.9188 14.9113 64.9244 15.0626 64.9636 15.186C65.0029 15.3037 65.0814 15.3934 65.1991 15.4551C65.3224 15.5112 65.485 15.5392 65.6869 15.5392C65.8214 15.5392 65.9868 15.5224 66.183 15.4887C66.3793 15.4495 66.5278 15.4215 66.6288 15.4046L66.7633 18.6676C66.5278 18.7349 66.2111 18.8106 65.813 18.8947C65.4205 18.9844 64.9636 19.0433 64.4422 19.0713C63.3545 19.1218 62.4687 19.0068 61.7847 18.7265C61.1063 18.4462 60.6354 18.0089 60.3719 17.4146C60.114 16.8147 60.0691 16.0662 60.2373 15.1692L62.2725 2.87406Z" fill="#212121"/>
<path d="M67.898 18.8863L70.0509 5.96886H74.6931L72.5402 18.8863H67.898ZM72.5739 4.6233C71.946 4.6233 71.4386 4.41585 71.0517 4.00097C70.6649 3.58048 70.5219 3.0815 70.6228 2.50403C70.7237 1.91535 71.0321 1.41637 71.5479 1.00709C72.0637 0.592207 72.6356 0.384766 73.2635 0.384766C73.897 0.384766 74.4016 0.592207 74.7772 1.00709C75.1529 1.41637 75.293 1.91535 75.1977 2.50403C75.108 3.0815 74.8053 3.58048 74.2895 4.00097C73.7793 4.41585 73.2074 4.6233 72.5739 4.6233Z" fill="#212121"/>
<path d="M80.0819 11.6202L78.8709 18.8863H74.2287L76.3816 5.96886H80.7883L80.3846 8.42452H80.5192C80.9285 7.60036 81.5256 6.95841 82.3105 6.49868C83.101 6.03334 83.9728 5.80067 84.9259 5.80067C85.8398 5.80067 86.5995 6.00811 87.205 6.42299C87.8105 6.83787 88.2394 7.40974 88.4917 8.13859C88.744 8.86743 88.7888 9.70281 88.6262 10.6447L87.247 18.8863H82.6048L83.8158 11.6202C83.9224 10.9811 83.8439 10.4793 83.5804 10.1149C83.3225 9.75046 82.8964 9.56825 82.3021 9.56825C81.9264 9.56825 81.5816 9.65235 81.2677 9.82054C80.9593 9.98313 80.7014 10.2186 80.494 10.527C80.2921 10.8297 80.1548 11.1941 80.0819 11.6202Z" fill="#212121"/>
<path d="M93.9737 23.9994C92.673 23.9994 91.5909 23.8144 90.7275 23.4444C89.8697 23.08 89.2362 22.5754 88.8269 21.9306C88.4232 21.2915 88.255 20.557 88.3223 19.7273H92.7963C92.8075 20.0076 92.8888 20.2319 93.0402 20.4001C93.1916 20.5682 93.4018 20.6888 93.6709 20.7617C93.94 20.8346 94.254 20.871 94.6128 20.871C95.2183 20.871 95.7425 20.7224 96.1854 20.4253C96.6284 20.1337 96.9003 19.6095 97.0012 18.8526L97.3712 16.6661H97.2367C97.0012 17.1034 96.6844 17.4762 96.2864 17.7846C95.8883 18.0874 95.4314 18.32 94.9156 18.4826C94.3998 18.6396 93.8503 18.7181 93.2673 18.7181C92.3478 18.7181 91.5376 18.505 90.8368 18.079C90.1416 17.6529 89.637 16.9773 89.3231 16.0522C89.0147 15.1271 88.9839 13.9189 89.2306 12.4276C89.4885 10.869 89.9426 9.60189 90.5929 8.62635C91.2433 7.65082 91.9918 6.93599 92.8384 6.48186C93.6849 6.02773 94.5343 5.80067 95.3865 5.80067C96.0257 5.80067 96.5667 5.9128 97.0096 6.13706C97.4525 6.35571 97.8057 6.65005 98.0692 7.02008C98.3327 7.38451 98.515 7.78538 98.6159 8.22268H98.7168L99.0868 5.96886H103.729L101.576 18.8526C101.408 19.9515 100.979 20.8822 100.289 21.6447C99.6054 22.4128 98.7196 22.9959 97.6319 23.3939C96.5499 23.7976 95.3305 23.9994 93.9737 23.9994ZM95.5211 15.4215C95.9472 15.4215 96.334 15.3037 96.6816 15.0682C97.0292 14.8272 97.3236 14.4852 97.5647 14.0423C97.8057 13.5937 97.9767 13.0555 98.0776 12.4276C98.1786 11.7884 98.1842 11.2418 98.0945 10.7877C98.0048 10.3279 97.8282 9.97752 97.5647 9.73644C97.3011 9.48976 96.9563 9.36641 96.5302 9.36641C96.1041 9.36641 95.7201 9.48976 95.3781 9.73644C95.0361 9.97752 94.7474 10.3279 94.5119 10.7877C94.2764 11.2418 94.1082 11.7884 94.0073 12.4276C93.9064 13.0667 93.898 13.6106 93.9821 14.0591C94.0662 14.502 94.2372 14.8412 94.4951 15.0767C94.753 15.3065 95.095 15.4215 95.5211 15.4215Z" fill="#212121"/>
<path d="M103.87 18.8863L106.729 1.66305H114.197C115.509 1.66305 116.583 1.83966 117.418 2.19287C118.259 2.54608 118.853 3.04506 119.201 3.68981C119.554 4.33456 119.658 5.09424 119.512 5.96886C119.4 6.59679 119.159 7.17146 118.789 7.69287C118.424 8.20867 117.962 8.64598 117.401 9.00479C116.846 9.358 116.227 9.60189 115.543 9.73644L115.509 9.90464C116.249 9.92707 116.894 10.1121 117.443 10.4597C117.993 10.8017 118.396 11.2782 118.654 11.8893C118.912 12.4949 118.974 13.2013 118.839 14.0086C118.682 14.9505 118.298 15.7887 117.687 16.5231C117.076 17.2576 116.283 17.8351 115.307 18.2556C114.332 18.676 113.222 18.8863 111.977 18.8863H103.87ZM109.185 15.1523H111.371C112.145 15.1523 112.753 15.0038 113.196 14.7066C113.645 14.4095 113.911 13.975 113.995 13.4031C114.063 12.9994 114.029 12.6574 113.894 12.3771C113.76 12.0968 113.533 11.8837 113.213 11.738C112.894 11.5922 112.493 11.5193 112.011 11.5193H109.757L109.185 15.1523ZM110.261 8.62635H112.179C112.582 8.62635 112.952 8.56188 113.289 8.43293C113.625 8.30398 113.903 8.11616 114.121 7.86947C114.34 7.62279 114.477 7.32564 114.533 6.97804C114.618 6.43981 114.489 6.03053 114.147 5.75021C113.81 5.46988 113.356 5.32972 112.784 5.32972H110.8L110.261 8.62635Z" fill="#212121"/>
<path d="M124.965 19.1218C123.585 19.1218 122.442 18.8583 121.533 18.3312C120.625 17.7986 119.986 17.0361 119.616 16.0438C119.246 15.0458 119.179 13.8516 119.414 12.4612C119.638 11.1269 120.101 9.96071 120.802 8.96274C121.508 7.96478 122.397 7.18828 123.468 6.63323C124.544 6.07819 125.75 5.80067 127.084 5.80067C128.059 5.80067 128.914 5.95204 129.649 6.25479C130.389 6.55755 130.992 6.99766 131.457 7.57513C131.922 8.1526 132.236 8.85061 132.399 9.66917C132.567 10.4821 132.567 11.4016 132.399 12.4276L132.231 13.504H120.692L121.096 10.9475H128.362C128.418 10.5774 128.382 10.2522 128.253 9.97192C128.13 9.68599 127.931 9.46453 127.656 9.30755C127.387 9.14496 127.061 9.06366 126.68 9.06366C126.299 9.06366 125.94 9.14496 125.604 9.30755C125.273 9.47013 124.99 9.6972 124.754 9.98874C124.525 10.2803 124.37 10.6223 124.292 11.0147L123.787 13.7059C123.72 14.1207 123.745 14.4908 123.863 14.816C123.981 15.1411 124.185 15.3962 124.477 15.5812C124.768 15.7663 125.144 15.8588 125.604 15.8588C125.918 15.8588 126.215 15.8167 126.495 15.7326C126.781 15.6429 127.033 15.514 127.252 15.3458C127.476 15.172 127.656 14.9617 127.79 14.715H132.029C131.726 15.6121 131.247 16.3914 130.591 17.053C129.94 17.7089 129.139 18.2191 128.186 18.5835C127.238 18.9424 126.164 19.1218 124.965 19.1218Z" fill="#212121"/>
<path d="M141.889 5.96886L141.317 9.33278H132.806L133.378 5.96886H141.889ZM135.531 2.87406H140.173L138.205 14.7319C138.177 14.9113 138.183 15.0626 138.222 15.186C138.262 15.3037 138.34 15.3934 138.458 15.4551C138.581 15.5112 138.744 15.5392 138.945 15.5392C139.08 15.5392 139.245 15.5224 139.442 15.4887C139.638 15.4495 139.786 15.4215 139.887 15.4046L140.022 18.6676C139.786 18.7349 139.47 18.8106 139.072 18.8947C138.679 18.9844 138.222 19.0433 137.701 19.0713C136.613 19.1218 135.727 19.0068 135.043 18.7265C134.365 18.4462 133.894 18.0089 133.631 17.4146C133.373 16.8147 133.328 16.0662 133.496 15.1692L135.531 2.87406Z" fill="#212121"/>
</g>
<g id="Group 5231">
<g id="Group 5229">
<path id="Rectangle 1871" d="M19.721 2.60735C19.9388 1.37823 20.0477 0.763675 20.5065 0.381837C20.9653 0 21.5949 0 22.8541 0H24.6348C25.894 0 26.5236 0 26.8471 0.381837C27.1706 0.763675 27.0617 1.37823 26.8439 2.60735L24.3028 16.9478C24.085 18.1769 23.9761 18.7914 23.5172 19.1733C23.0584 19.5551 22.4288 19.5551 21.1696 19.5551H19.3889C18.1297 19.5551 17.5002 19.5551 17.1766 19.1733C16.8531 18.7914 16.962 18.1769 17.1798 16.9478L19.721 2.60735Z" fill="#FD6230"/>
<path id="Rectangle 1872" d="M10.9983 6.94426C11.2161 5.71515 11.325 5.10059 11.7838 4.71875C12.2427 4.33691 12.8723 4.33691 14.1314 4.33691H15.9121C17.1713 4.33691 17.8009 4.33691 18.1244 4.71875C18.4479 5.10059 18.339 5.71515 18.1212 6.94426L16.3501 16.9391C16.1323 18.1682 16.0234 18.7828 15.5646 19.1646C15.1058 19.5465 14.4762 19.5465 13.217 19.5465H11.4363C10.1771 19.5465 9.54754 19.5465 9.22403 19.1646C8.90052 18.7828 9.00942 18.1682 9.22722 16.9391L10.9983 6.94426Z" fill="#5685FF"/>
<path id="Rectangle 1873" d="M2.27174 11.2812C2.48954 10.0521 2.59844 9.4375 3.05728 9.05567C3.51611 8.67383 4.14569 8.67383 5.40486 8.67383H7.18559C8.44475 8.67383 9.07434 8.67383 9.39785 9.05567C9.72136 9.4375 9.61246 10.0521 9.39466 11.2812L8.39361 16.9304C8.17581 18.1595 8.06691 18.7741 7.60807 19.1559C7.14924 19.5378 6.51966 19.5378 5.26049 19.5378H3.47976C2.2206 19.5378 1.59101 19.5378 1.2675 19.1559C0.943992 18.7741 1.05289 18.1595 1.27069 16.9304L2.27174 11.2812Z" fill="#5685FF"/>
<path id="Rectangle 1874" d="M2.27174 11.2812C2.48954 10.0521 2.59844 9.4375 3.05728 9.05567C3.51611 8.67383 4.14569 8.67383 5.40486 8.67383H7.18559C8.44475 8.67383 9.07434 8.67383 9.39785 9.05567C9.72136 9.4375 9.61246 10.0521 9.39466 11.2812L8.39361 16.9304C8.17581 18.1595 8.06691 18.7741 7.60807 19.1559C7.14924 19.5378 6.51966 19.5378 5.26049 19.5378H3.47976C2.2206 19.5378 1.59101 19.5378 1.2675 19.1559C0.943992 18.7741 1.05289 18.1595 1.27069 16.9304L2.27174 11.2812Z" fill="#5685FF"/>
</g>
<mask id="mask0_1402_1619" style="mask-type:alpha" maskUnits="userSpaceOnUse" x="1" y="0" width="27" height="20">
<g id="Group 5230">
<path id="Rectangle 1871_2" d="M19.721 2.60735C19.9388 1.37823 20.0477 0.763675 20.5065 0.381837C20.9653 0 21.5949 0 22.8541 0H24.6348C25.894 0 26.5236 0 26.8471 0.381837C27.1706 0.763675 27.0617 1.37823 26.8439 2.60735L24.3028 16.9478C24.085 18.1769 23.9761 18.7914 23.5172 19.1733C23.0584 19.5551 22.4288 19.5551 21.1696 19.5551H19.3889C18.1297 19.5551 17.5002 19.5551 17.1766 19.1733C16.8531 18.7914 16.962 18.1769 17.1798 16.9478L19.721 2.60735Z" fill="#FD6230"/>
<path id="Rectangle 1872_2" d="M10.9983 6.94426C11.2161 5.71515 11.325 5.10059 11.7838 4.71875C12.2427 4.33691 12.8723 4.33691 14.1314 4.33691H15.9121C17.1713 4.33691 17.8009 4.33691 18.1244 4.71875C18.4479 5.10059 18.339 5.71515 18.1212 6.94426L16.3501 16.9391C16.1323 18.1682 16.0234 18.7828 15.5646 19.1646C15.1058 19.5465 14.4762 19.5465 13.217 19.5465H11.4363C10.1771 19.5465 9.54754 19.5465 9.22403 19.1646C8.90052 18.7828 9.00942 18.1682 9.22722 16.9391L10.9983 6.94426Z" fill="#5685FF"/>
<path id="Rectangle 1873_2" d="M2.27174 11.2812C2.48954 10.0521 2.59844 9.4375 3.05728 9.05567C3.51611 8.67383 4.14569 8.67383 5.40486 8.67383H7.18559C8.44475 8.67383 9.07434 8.67383 9.39785 9.05567C9.72136 9.4375 9.61246 10.0521 9.39466 11.2812L8.39361 16.9304C8.17581 18.1595 8.06691 18.7741 7.60807 19.1559C7.14924 19.5378 6.51966 19.5378 5.26049 19.5378H3.47976C2.2206 19.5378 1.59101 19.5378 1.2675 19.1559C0.943992 18.7741 1.05289 18.1595 1.27069 16.9304L2.27174 11.2812Z" fill="#5685FF"/>
<path id="Rectangle 1874_2" d="M2.27174 11.2812C2.48954 10.0521 2.59844 9.4375 3.05728 9.05567C3.51611 8.67383 4.14569 8.67383 5.40486 8.67383H7.18559C8.44475 8.67383 9.07434 8.67383 9.39785 9.05567C9.72136 9.4375 9.61246 10.0521 9.39466 11.2812L8.39361 16.9304C8.17581 18.1595 8.06691 18.7741 7.60807 19.1559C7.14924 19.5378 6.51966 19.5378 5.26049 19.5378H3.47976C2.2206 19.5378 1.59101 19.5378 1.2675 19.1559C0.943992 18.7741 1.05289 18.1595 1.27069 16.9304L2.27174 11.2812Z" fill="#5685FF"/>
</g>
</mask>
<g mask="url(#mask0_1402_1619)">
<path id="Ellipse 112" opacity="0.2" d="M27.3345 -2.15275C27.3345 8.65649 18.5719 17.4191 7.76266 17.4191C-3.04658 17.4191 -11.8092 8.65649 -11.8092 -2.15275C-11.8092 -12.962 -3.04658 -21.7246 7.76266 -21.7246C18.5719 -21.7246 27.3345 -12.962 27.3345 -2.15275Z" fill="url(#paint0_linear_1402_1619)"/>
</g>
</g>
</g>
<defs>
<linearGradient id="paint0_linear_1402_1619" x1="22.5822" y1="8.03962" x2="7.13736" y2="-3.59094" gradientUnits="userSpaceOnUse">
<stop stop-color="white"/>
<stop offset="0.104167" stop-color="white" stop-opacity="0.661458"/>
<stop offset="0.3125" stop-color="white" stop-opacity="0.403797"/>
<stop offset="1" stop-color="white" stop-opacity="0"/>
</linearGradient>
</defs>
</svg>
